<?xml version="1.0" encoding="utf-8"?>
<!-- Generator: Adobe Illustrator 21.0.0, SVG Export Plug-In . SVG Version: 6.00 Build 0)  -->
<svg version="1.1" id="Layer_1" xmlns="http://www.w3.org/2000/svg" xmlns:xlink="http://www.w3.org/1999/xlink" x="0px" y="0px"
	 viewBox="0 0 398.5 324" style="enable-background:new 0 0 398.5 324;" xml:space="preserve">
<g>
	<path d="M125.2,324c150.4,0,232.6-124.7,232.6-232.6c0-3.5,0-7-0.2-10.5c15.9-11.5,29.8-26,40.8-42.4c-14.7,6.5-30.5,10.8-47,12.9
		c16.9-10,29.8-26.1,36-45.3c-15.8,9.4-33.3,16.1-52,19.8C320.5,9.9,299.3,0,275.8,0C230.7,0,194,36.7,194,81.8
		c0,6.4,0.8,12.6,2.1,18.7C128.2,97.1,67.9,64.4,27.6,15c-7,12.1-11,26.1-11,41.1c0,28.4,14.5,53.4,36.4,68.1
		c-13.4-0.5-26-4.1-37-10.2c0,0.3,0,0.6,0,1.1c0,39.5,28.2,72.7,65.5,80.2c-6.9,1.9-14,2.9-21.5,2.9c-5.3,0-10.4-0.5-15.3-1.4
		c10.4,32.5,40.7,56.1,76.4,56.8c-28.1,22-63.3,35.1-101.6,35.1c-6.5,0-13.1-0.3-19.5-1.1C36,310.4,79.1,324,125.2,324"/>
</g>
</svg>
